# xmcd CD database file
#
# Track frame offsets:
#	150
#	20232
#	41338
#	55746
#	70610
#	89723
#	110557
#	129897
#	145488
#	165791
#
# Disc length: 2456 seconds
#
# Revision: 0
# Processed by: cddbd v1.5.2PL0 Copyright (c) Steve Scherf et al.
# Submitted via: CDex 2.06
#
DISCID=8209960a
DTITLE=Suzannah Espie and The Last Word - Sea Of Lights
DYEAR=2012
DGENRE=Country
TTITLE0=Heart Beating
TTITLE1=Bluebird Boots
TTITLE2=Blue Mountains
TTITLE3=Into The Light
TTITLE4=Rosedale
TTITLE5=Sea Of Lights
TTITLE6=Raining In Armadale
TTITLE7=Black Lighthouse
TTITLE8=Other Side Of The Mountain
TTITLE9=Fly Away
EXTD=YEAR: 2012
EXTT0=
EXTT1=
EXTT2=
EXTT3=
EXTT4=
EXTT5=
EXTT6=
EXTT7=
EXTT8=
EXTT9=
PLAYORDER=
